<?xml version="1.0" encoding="utf-8"?>
<!-- Generator: Adobe Illustrator 21.0.0, SVG Export Plug-In . SVG Version: 6.00 Build 0)  -->
<svg version="1.1" id="Слой_1" xmlns="http://www.w3.org/2000/svg" xmlns:xlink="http://www.w3.org/1999/xlink" x="0px" y="0px"
	 viewBox="0 0 500 500" style="enable-background:new 0 0 500 500;" xml:space="preserve">
<style type="text/css">
	.st0{fill:#00B3F9;}
	.st1{fill:none;stroke:#2D466F;stroke-width:7;stroke-linecap:round;stroke-miterlimit:10;}
</style>
<path class="st0" d="M250.9,500c117.2,0,214.7-83.7,236.3-194.5H14.6C36.2,416.3,133.8,500,250.9,500z"/>
<path class="st1" d="M180.4,30.1c-26.3,8-50.7,20.5-72.3,36.4"/>
<path class="st1" d="M392.4,65.5c-17.5-12.7-36.8-23.1-57.4-30.8"/>
<path class="st1" d="M392.4,65.5"/>
<path class="st1" d="M449.7,123.1c-9.3-13.5-19.8-26-31.6-37.3"/>
<path class="st1" d="M83.7,85.9c-45.4,43.8-73.6,105.3-73.6,173.3c0,0.2,0,0.4,0,0.6c0,0.2,0,0.4,0,0.6
	c0,70.8,30.6,134.5,79.3,178.6l1.4,0c42.6,37.9,98.7,61,160.2,61c64.3,0,122.7-25.2,165.9-66.3l1.3,0
	c45.4-43.8,73.6-105.3,73.6-173.3c0-0.2,0-0.4,0-0.6c0-0.2,0-0.4,0-0.6c0-40.6-10.1-78.9-27.8-112.4"/>
<g>
	<path class="st0" d="M316.4,378.5H178.8V26.5c0-0.6,0.4-1,1-1h135.6c0.6,0,1,0.4,1,1V378.5z"/>
	<path class="st1" d="M333.6,378.5H178.8V2.5c0-0.6,0.4-1,1-1h152.8c0.6,0,1,0.4,1,1V378.5z"/>
	<path class="st1" d="M165.8,379h178.6"/>
	<rect x="196.2" y="28.8" class="st1" width="120.2" height="334"/>
	<rect x="208.6" y="95.6" class="st1" width="95.4" height="9.8"/>
	<rect x="208.6" y="61.6" class="st1" width="95.4" height="9.8"/>
	<line class="st1" x1="170.2" y1="1.3" x2="344.6" y2="1.3"/>
	<rect x="208.6" y="128.2" class="st1" width="95.4" height="9.8"/>
	<rect x="208.6" y="160.9" class="st1" width="95.4" height="9.8"/>
	<rect x="208.6" y="193.6" class="st1" width="95.4" height="9.8"/>
	<rect x="208.6" y="226.2" class="st1" width="95.4" height="9.8"/>
	<rect x="208.6" y="258.9" class="st1" width="95.4" height="9.8"/>
	<rect x="208.6" y="291.6" class="st1" width="95.4" height="9.8"/>
	<rect x="208.6" y="324.3" class="st1" width="95.4" height="9.8"/>
	<g>
		<path class="st1" d="M233.4,329.2"/>
	</g>
</g>
<g>
	<path class="st0" d="M144.8,326.3H50V83.5c0-0.6,0.4-1,1-1h92.8c0.6,0,1,0.4,1,1V326.3z"/>
	<path class="st1" d="M156.6,326.3H50V67.6c0-0.6,0.4-1,1-1h104.6c0.6,0,1,0.4,1,1V326.3z"/>
	<path class="st1" d="M41,326.7h123"/>
	<rect x="62" y="85.5" class="st1" width="82.8" height="230"/>
	<line class="st1" x1="70.5" y1="131.4" x2="136.2" y2="131.4"/>
	<line class="st1" x1="70.5" y1="108.1" x2="136.2" y2="108.1"/>
	<line class="st1" x1="44.1" y1="66.5" x2="164.2" y2="66.5"/>
	<line class="st1" x1="70.5" y1="153.9" x2="136.2" y2="153.9"/>
	<line class="st1" x1="70.5" y1="176.4" x2="136.2" y2="176.4"/>
	<line class="st1" x1="70.5" y1="198.9" x2="136.2" y2="198.9"/>
	<line class="st1" x1="70.5" y1="221.4" x2="136.2" y2="221.4"/>
	<line class="st1" x1="70.5" y1="243.9" x2="136.2" y2="243.9"/>
	<line class="st1" x1="70.5" y1="266.4" x2="136.2" y2="266.4"/>
	<line class="st1" x1="70.5" y1="288.9" x2="136.2" y2="288.9"/>
	<g>
		<path class="st1" d="M87.6,292.3"/>
	</g>
</g>
<g>
	<path class="st0" d="M412.5,82.5h37.3c0.6,0,1,0.4,1,1v242.8H356V83.5c0-0.6,0.4-1,1-1H412.5"/>
	<path class="st1" d="M462.6,326.3H356V67.6c0-0.6,0.4-1,1-1h104.6c0.6,0,1,0.4,1,1V326.3z"/>
	<path class="st1" d="M347,326.7h123"/>
	<polyline class="st1" points="418.4,85.5 450.8,85.5 450.8,315.5 368,315.5 368,85.5 418.4,85.5 	"/>
	<line class="st1" x1="376.5" y1="131.4" x2="442.2" y2="131.4"/>
	<line class="st1" x1="376.5" y1="108.1" x2="442.2" y2="108.1"/>
	<line class="st1" x1="390.7" y1="66.5" x2="470.2" y2="66.5"/>
	<line class="st1" x1="350.1" y1="66.5" x2="390.7" y2="66.5"/>
	<line class="st1" x1="376.5" y1="153.9" x2="442.2" y2="153.9"/>
	<line class="st1" x1="376.5" y1="176.4" x2="442.2" y2="176.4"/>
	<line class="st1" x1="376.5" y1="198.9" x2="442.2" y2="198.9"/>
	<line class="st1" x1="376.5" y1="221.4" x2="442.2" y2="221.4"/>
	<line class="st1" x1="376.5" y1="243.9" x2="442.2" y2="243.9"/>
	<line class="st1" x1="376.5" y1="266.4" x2="442.2" y2="266.4"/>
	<line class="st1" x1="376.5" y1="288.9" x2="442.2" y2="288.9"/>
	<g>
		<path class="st1" d="M393.6,292.3"/>
	</g>
</g>
</svg>
