<?xml version="1.0" encoding="utf-8"?>
<!-- Generator: Adobe Illustrator 21.0.0, SVG Export Plug-In . SVG Version: 6.00 Build 0)  -->
<svg version="1.1" id="Слой_1" xmlns="http://www.w3.org/2000/svg" xmlns:xlink="http://www.w3.org/1999/xlink" x="0px" y="0px"
	 viewBox="0 0 500 500" style="enable-background:new 0 0 500 500;" xml:space="preserve">
<style type="text/css">
	.st0{fill:#00B3F9;}
	.st1{fill:none;stroke:#2D466F;stroke-width:7;stroke-linecap:round;stroke-miterlimit:10;}
	.st2{fill:#2D466F;}
</style>
<path class="st0" d="M250.9,500c117.2,0,214.7-83.7,236.3-194.5H14.6C36.2,416.3,133.8,500,250.9,500z"/>
<path class="st1" d="M180.4,30.1c-26.3,8-50.7,20.5-72.3,36.4"/>
<path class="st1" d="M392.4,65.5c-17.5-12.7-36.8-23.1-57.4-30.8"/>
<path class="st1" d="M392.4,65.5"/>
<path class="st1" d="M271.8,35.9c0,0-7.3-9-20.9-9c-11.7,0-18.4,9.1-18.4,9.1"/>
<path class="st1" d="M83.7,85.9c-29.9,28.9-52.4,65.5-64.2,106.6c-8.6,29.5-11.6,61.2-8,93.4c0.1,0.8,0.2,1.6,0.3,2.3
	c0.1,0.8,0.2,1.5,0.3,2.3c1.1,8.8,2.7,17.5,4.7,26c0,0.1,0,0.1,0,0.2c0.4,1.6,0.8,3.1,1.2,4.7c0.2,0.8,0.4,1.5,0.6,2.3
	c0.2,0.7,0.4,1.4,0.6,2.1c16,57.3,52.1,104.8,99.3,136l1.3-0.2c47.8,31.1,106.8,45.4,167.6,36c50.8-7.8,95.4-30.9,129.9-63.9l1,0
	c8.7-8.3,16.7-17.3,24-26.9l0.4-0.1c33.6-44.1,52-99.8,49-158.3c-1.6-36.6-11.4-71-27.6-101.6l-0.3-0.1
	c-5.7-10.7-12.1-20.9-19.3-30.5"/>
<g>
	<path class="st0" d="M196.4,378.5H58.8V26.5c0-0.6,0.4-1,1-1h135.6c0.6,0,1,0.4,1,1V378.5z"/>
	<path class="st1" d="M213.6,378.5H58.8V2.5c0-0.6,0.4-1,1-1h152.8c0.6,0,1,0.4,1,1V378.5z"/>
	<path class="st1" d="M45.8,379h178.6"/>
	<rect x="76.2" y="28.8" class="st1" width="120.2" height="334"/>
	<rect x="88.6" y="95.6" class="st1" width="95.4" height="9.8"/>
	<rect x="88.6" y="61.6" class="st1" width="95.4" height="9.8"/>
	<line class="st1" x1="50.2" y1="1.3" x2="224.6" y2="1.3"/>
	<rect x="88.6" y="128.2" class="st1" width="95.4" height="9.8"/>
	<rect x="88.6" y="160.9" class="st1" width="95.4" height="9.8"/>
	<rect x="88.6" y="193.6" class="st1" width="95.4" height="9.8"/>
	<rect x="88.6" y="226.2" class="st1" width="95.4" height="9.8"/>
	<rect x="88.6" y="258.9" class="st1" width="95.4" height="9.8"/>
	<rect x="88.6" y="291.6" class="st1" width="95.4" height="9.8"/>
	<rect x="88.6" y="324.3" class="st1" width="95.4" height="9.8"/>
	<g>
		<path class="st1" d="M113.4,329.2"/>
	</g>
</g>
<g>
	<path class="st0" d="M427.4,378.5H289.8V26.5c0-0.6,0.4-1,1-1h135.6c0.6,0,1,0.4,1,1V378.5z"/>
	<path class="st1" d="M444.6,378.5H289.8V2.5c0-0.6,0.4-1,1-1h152.8c0.6,0,1,0.4,1,1V378.5z"/>
	<path class="st1" d="M276.8,379h178.6"/>
	<rect x="307.2" y="28.8" class="st1" width="120.2" height="334"/>
	<rect x="319.6" y="95.6" class="st1" width="95.4" height="9.8"/>
	<rect x="319.6" y="61.6" class="st1" width="95.4" height="9.8"/>
	<line class="st1" x1="281.2" y1="1.3" x2="455.6" y2="1.3"/>
	<rect x="319.6" y="128.2" class="st1" width="95.4" height="9.8"/>
	<rect x="319.6" y="160.9" class="st1" width="95.4" height="9.8"/>
	<rect x="319.6" y="193.6" class="st1" width="95.4" height="9.8"/>
	<rect x="319.6" y="226.2" class="st1" width="95.4" height="9.8"/>
	<rect x="319.6" y="258.9" class="st1" width="95.4" height="9.8"/>
	<rect x="319.6" y="291.6" class="st1" width="95.4" height="9.8"/>
	<rect x="319.6" y="324.3" class="st1" width="95.4" height="9.8"/>
	<g>
		<path class="st1" d="M344.4,329.2"/>
	</g>
</g>
<polygon class="st2" points="226.2,30 226.2,42.1 238.3,42.1 "/>
<polygon class="st2" points="277.9,30 277.9,42.1 265.7,42.1 "/>
</svg>
