<?xml version="1.0" encoding="utf-8"?>
<!-- Generator: Adobe Illustrator 21.0.0, SVG Export Plug-In . SVG Version: 6.00 Build 0)  -->
<svg version="1.1" id="Слой_1" xmlns="http://www.w3.org/2000/svg" xmlns:xlink="http://www.w3.org/1999/xlink" x="0px" y="0px"
	 viewBox="0 0 500 500" style="enable-background:new 0 0 500 500;" xml:space="preserve">
<style type="text/css">
	.st0{fill:#00B3F9;}
	.st1{fill:none;stroke:#2D466F;stroke-width:7;stroke-linecap:round;stroke-miterlimit:10;}
</style>
<path class="st0" d="M252.8,495c117.2,0,214.7-83.7,236.3-194.5H16.5C38.1,411.3,135.7,495,252.8,495z"/>
<path class="st1" d="M100.6,61.6C68,87.5,42.1,121.7,26.4,161.4c-5.3,13.2-9.4,27-12.3,41.1c-0.2,0.8-0.3,1.5-0.5,2.3
	c-0.1,0.5-0.2,1-0.3,1.5c-5.9,30.9-5.7,63.1,1,94.7c1.8,8.4,4,16.7,6.6,24.9c0.1,0.2,0.1,0.3,0.2,0.5c0.4,1.3,0.9,2.6,1.3,4
	c0.3,1,0.7,2,1.1,3c0.2,0.5,0.4,1,0.6,1.6c11.2,30.5,28.4,58,50,81.2c0.4,0.4,0.7,0.8,1.1,1.2c0.5,0.5,1,1.1,1.5,1.6
	c41,43,95.3,68,151.6,73.3l0,0c56.8,4.9,116.7-11,166-47.8c1.8-1.4,3.6-2.8,5.4-4.2l0.1,0c9.4-7.5,18.3-15.6,26.5-24.4l0,0
	c23.5-25.3,42-55.6,52.9-89c0,0,7.4-23.7,9.4-35.5l0,0c5.3-32.7,3.9-66.5-4.5-99.1c-2.8-11.3-6.7-22.4-11.1-33.1l0,0
	c-4.6-11.2-10-22-16.2-32.3l-0.5-0.1c-13.8-22.9-30.9-42.7-50.3-59.2"/>
<g>
	<path class="st0" d="M231.1,321.3l22.8-12.6c51.5-30.3,84.6-84.5,87.2-144.2c0.1-2.3,0.2-4.5,0.2-6.6V92.5c0-1.6-1.6-2.8-3.2-2.3
		l0,0c-34.6,10.5-70.5-23.3-106.3-23.4c-35.8-0.1-71.6,33.7-106.2,23.1l-1.5-0.5c-1.6-0.5-3.2,0.7-3.2,2.3v65.4
		c0,2.1,0.1,4.3,0.2,6.6c2.6,59.7,35.7,113.9,87.2,144.2L231.1,321.3"/>
	<path class="st1" d="M252.8,358.3l31.5-17.4C355.6,298.9,401.3,224,405,141.4c0.1-3.2,0.2-6.3,0.2-9.2V41.6c0-2.3-2.2-3.9-4.4-3.2
		l0,0C352.9,52.9,303.3,6.1,253.8,6s-99.1,46.6-147,31.9l-2.1-0.6c-2.2-0.7-4.4,1-4.4,3.2v90.5c0,2.9,0.1,6,0.2,9.2
		c3.7,82.6,49.5,157.6,120.7,199.5L252.8,358.3"/>
	<path class="st1" d="M252.8,309.4l22.8-12.6c51.5-30.3,84.6-84.5,87.2-144.2c0.1-2.3,0.2-4.5,0.2-6.6V80.6c0-1.6-1.6-2.8-3.2-2.3
		l0,0c-34.6,10.5-70.5-23.3-106.3-23.4s-71.6,33.7-106.2,23.1l-1.5-0.5c-1.6-0.5-3.2,0.7-3.2,2.3v65.4c0,2.1,0.1,4.3,0.2,6.6
		c2.6,59.7,35.7,113.9,87.2,144.2L252.8,309.4"/>
</g>
</svg>
