<?xml version="1.0" encoding="utf-8"?>
<!-- Generator: Adobe Illustrator 21.0.0, SVG Export Plug-In . SVG Version: 6.00 Build 0)  -->
<svg version="1.1" id="Слой_1" xmlns="http://www.w3.org/2000/svg" xmlns:xlink="http://www.w3.org/1999/xlink" x="0px" y="0px"
	 viewBox="0 0 500 500" style="enable-background:new 0 0 500 500;" xml:space="preserve">
<style type="text/css">
	.st0{display:none;fill:#00B3F9;}
	.st1{display:none;fill:none;stroke:#2D466F;stroke-width:7;stroke-linecap:round;stroke-miterlimit:10;}
	.st2{fill:#00B3F9;}
	.st3{fill:#2D466F;}
</style>
<path class="st0" d="M252.8,495c117.2,0,214.7-83.7,236.3-194.5H16.5C38.1,411.3,135.7,495,252.8,495z"/>
<path class="st1" d="M100.6,61.6C68,87.5,42.1,121.7,26.4,161.4c-5.3,13.2-9.4,27-12.3,41.1c-0.2,0.8-0.3,1.5-0.5,2.3
	c-0.1,0.5-0.2,1-0.3,1.5c-5.9,30.9-5.7,63.1,1,94.7c1.8,8.4,4,16.7,6.6,24.9c0.1,0.2,0.1,0.3,0.2,0.5c0.4,1.3,0.9,2.6,1.3,4
	c0.3,1,0.7,2,1.1,3c0.2,0.5,0.4,1,0.6,1.6c11.2,30.5,28.4,58,50,81.2c0.4,0.4,0.7,0.8,1.1,1.2c0.5,0.5,1,1.1,1.5,1.6
	c41,43,95.3,68,151.6,73.3l0,0c56.8,4.9,116.7-11,166-47.8c1.8-1.4,3.6-2.8,5.4-4.2l0.1,0c9.4-7.5,18.3-15.6,26.5-24.4l0,0
	c23.5-25.3,42-55.6,52.9-89c0,0,7.4-23.7,9.4-35.5l0,0c5.3-32.7,3.9-66.5-4.5-99.1c-2.8-11.3-6.7-22.4-11.1-33.1l0,0
	c-4.6-11.2-10-22-16.2-32.3l-0.5-0.1c-13.8-22.9-30.9-42.7-50.3-59.2"/>
<path class="st2" d="M239.7,243.3L239.7,243.3c-21.2,12.7-46,20.2-70,21.7l0,0l0,0c0,32.2,11.1,62.7,23.3,80.6
	c0,0.1,0.1,0.1,0.1,0.2c9.6,14.1,22.5,30,46.6,43.5l0,0V243.3z"/>
<path class="st2" d="M437.5,242.5H334.1c-21,0-38.1-17-38.1-38.1v-55.6c0-21,17-38.1,38.1-38.1h103.4c21,0,38.1,17,38.1,38.1v55.6
	C475.6,225.5,458.5,242.5,437.5,242.5z"/>
<g>
	<path class="st2" d="M422.8,192.1H255.6c-6.9,0-13.5-3-18.1-8.1l-20.9-23.5c-4.7-5.3-11.5-8.4-18.6-8.4H49.8c-11,0-20,9-20,20
		v253.8c0,8.4,6.8,15.2,15.2,15.2h370.2c8.3,0,15-6.7,15-15V199.5C430.2,195.4,426.9,192.1,422.8,192.1z M286.5,335.6
		c0,0.1-0.1,0.1-0.1,0.2c-9.6,14.1-22.5,30-46.6,43.5h0c-24.1-13.5-36.9-29.4-46.6-43.5c0-0.1-0.1-0.1-0.1-0.2
		c-12.2-17.9-23.3-48.4-23.3-80.6c24-1.6,48.8-9.1,70-21.7h0c21.2,12.7,46,20.2,70,21.7C309.7,287.2,298.7,317.7,286.5,335.6z"/>
</g>
<g>
	<path class="st3" d="M11.6,140.4c-1.5,0-2.7,1.2-2.7,2.7V189c0,1.5,1.2,2.7,2.7,2.7s3.1-0.8,3.1-2.7v-45.9
		C14.7,141.6,13.2,140.4,11.6,140.4z"/>
	<path class="st3" d="M11.6,201.3c-1.5,0-2.7,1.2-2.7,2.7v15c0,1.5,1.2,2.7,2.7,2.7s3.1-1.2,3.1-2.7v-15
		C14.7,202.5,13.2,201.3,11.6,201.3z"/>
	<path class="st3" d="M473.6,293c0-1.5-1.2-2.7-2.7-2.7c-1.5,0-2.7,1.2-2.7,2.7v45.9c0,1.5,1.2,2.7,2.7,2.7c1.5,0,2.7-1.2,2.7-2.7
		V293z"/>
	<path class="st3" d="M470.9,351.2c-1.5,0-2.7,1.2-2.7,2.7v15c0,1.5,1.2,2.7,2.7,2.7c1.5,0,2.7-1.2,2.7-2.7v-15
		C473.6,352.4,472.5,351.2,470.9,351.2z"/>
	<path class="st3" d="M231.6,81.5c0.4,0.4,1.2,0.8,1.9,0.8s1.5-0.4,1.9-0.8c1.2-1.2,1.2-3.1,0-3.9l-5.8-5.8c-1.2-1.2-3.1-1.2-3.9,0
		c-0.8,1.2-1.2,3.1,0,3.9L231.6,81.5z"/>
	<path class="st3" d="M250.1,100c0.4,0.4,1.2,0.8,1.9,0.8c0.8,0,1.5-0.4,1.9-0.8c1.2-1.2,1.2-3.1,0-3.9l-5.8-5.8
		c-1.2-1.2-3.1-1.2-3.9,0c-1.2,1.2-1.2,3.1,0,3.9L250.1,100z"/>
	<path class="st3" d="M227.8,100.7c0.8,0,1.5-0.4,1.9-0.8l5.8-5.8c1.2-1.2,1.2-3.1,0-3.9c-1.2-1.2-3.1-1.2-3.9,0l-5.8,5.8
		c-1.2,1.2-1.2,3.1,0,3.9C226.3,100.3,227,100.7,227.8,100.7z"/>
	<path class="st3" d="M246.3,82.2c0.8,0,1.5-0.4,1.9-0.8l5.8-5.8c1.2-1.2,1.2-3.1,0-3.9c-1.2-1.2-3.1-1.2-3.9,0l-5.8,5.8
		c-1.2,1.2-1.2,3.1,0,3.9C244.7,81.8,245.5,82.2,246.3,82.2z"/>
	<path class="st3" d="M249.8,454.9c-1.2-1.2-3.1-1.2-3.9,0c-1.2,1.2-1.2,3.1,0,3.9l5.8,5.8c0.4,0.4,1.2,0.8,1.9,0.8
		c0.8,0,1.5-0.4,1.9-0.8c1.2-1.2,1.2-3.1,0-3.9L249.8,454.9z"/>
	<path class="st3" d="M268.3,473.3c-1.2-1.2-3.1-1.2-3.9,0c-1.2,1.2-1.2,3.1,0,3.9l5.8,5.8c0.4,0.4,1.2,0.8,1.9,0.8
		c0.8,0,1.5-0.4,1.9-0.8c1.2-1.2,1.2-3.1,0-3.9L268.3,473.3z"/>
	<path class="st3" d="M251.3,473.3l-5.8,5.8c-1.2,1.2-1.2,3.1,0,3.9c0.4,0.4,1.2,0.8,1.9,0.8c0.8,0,1.5-0.4,1.9-0.8l5.8-5.8
		c1.2-1.2,1.2-3.1,0-3.9C254.4,472.2,252.5,472.2,251.3,473.3z"/>
	<path class="st3" d="M270.2,454.9l-5.8,5.8c-1.2,1.2-1.2,3.1,0,3.9c0.4,0.4,1.2,0.8,1.9,0.8c0.8,0,1.5-0.4,1.9-0.8l5.8-5.8
		c1.2-1.2,1.2-3.1,0-3.9C272.9,453.7,271,453.7,270.2,454.9z"/>
	<path class="st3" d="M484,19c-7.7,0-14.3,6.6-14.3,14.3s6.6,14.3,14.3,14.3c7.7,0,14.3-6.6,14.3-14.3C498.3,25.2,491.8,19,484,19z
		 M484,41.8c-4.6,0-8.5-3.9-8.5-8.5s3.9-8.5,8.5-8.5c4.6,0,8.5,3.9,8.5,8.5S488.7,41.8,484,41.8z"/>
	<path class="st3" d="M109.1,450.2c-7.7,0-14.3,6.6-14.3,14.3s6.6,14.3,14.3,14.3s14.3-6.6,14.3-14.3
		C123.4,456.4,116.8,450.2,109.1,450.2z M109.1,473c-4.6,0-8.5-3.9-8.5-8.5c0-4.6,3.9-8.5,8.5-8.5s8.5,3.9,8.5,8.5
		C117.6,469.1,113.7,473,109.1,473z"/>
	<path class="st3" d="M79.8,54.5c0,1.5,1.2,2.7,2.7,2.7h52.8c1.5,0,2.7-1.2,2.7-2.7c0-1.5-1.2-2.7-2.7-2.7H82.9
		C81.4,51.8,79.8,52.9,79.8,54.5z"/>
	<path class="st3" d="M48.6,57.6h17c1.5,0,2.7-1.2,2.7-2.7s-1.2-2.7-2.7-2.7h-17c-1.5,0-2.7,1.2-2.7,2.7
		C45.5,56,47.1,57.6,48.6,57.6z"/>
	<path class="st3" d="M48.6,39.5h36.6c1.5,0,2.7-1.5,2.7-3.1c0-1.5-1.2-2.7-2.7-2.7H48.6c-1.5,0-3.1,1.2-3.1,2.7
		C45.5,37.9,47.1,39.5,48.6,39.5z"/>
	<path class="st3" d="M101,39.5H113c1.5,0,2.7-1.2,2.7-2.7c0-1.5-1.2-2.7-2.7-2.7H101c-1.5,0-2.7,1.2-2.7,2.7
		C98.3,37.9,99.5,39.5,101,39.5z"/>
	<path class="st3" d="M452.4,464.5c0-1.5-1.2-2.7-2.7-2.7H397c-1.5,0-2.7,1.2-2.7,2.7c0,1.5,1.2,2.7,2.7,2.7h52.8
		C451.3,467.2,452.4,466,452.4,464.5z"/>
	<path class="st3" d="M484,461.8h-17c-1.5,0-2.7,1.2-2.7,2.7c0,1.5,1.2,2.7,2.7,2.7h17c1.5,0,2.7-1.2,2.7-2.7
		C486.7,462.9,485.6,461.8,484,461.8z"/>
	<path class="st3" d="M484,479.9h-36.6c-1.5,0-2.7,1.2-2.7,2.7c0,1.5,1.2,2.7,2.7,2.7H484c1.5,0,2.7-1.2,2.7-2.7
		S485.6,479.9,484,479.9z"/>
	<path class="st3" d="M431.3,479.9h-11.9c-1.5,0-2.7,1.2-2.7,2.7c0,1.5,1.2,2.7,2.7,2.7h11.9c1.5,0,2.7-1.2,2.7-2.7
		C434.3,481.1,432.8,479.9,431.3,479.9z"/>
	<path class="st3" d="M443.2,416.3V241.8c0-1.5-1.2-2.7-2.7-2.7s-2.7,1.2-2.7,2.7v174.6c0,6.2-5,11.2-11.2,11.2H81.7
		c0.8-0.4,1.2-1.2,1.2-2.3v-5.8c0-1.5-1.2-2.7-2.7-2.7c-1.5,0-2.7,1.2-2.7,2.7v5.8c0,0.8,0.4,1.5,1.2,2.3H54
		c-6.2,0-11.2-5-11.2-11.2V160.8c0-7.7,6.6-14.3,14.3-14.3h21.6c-0.8,0.4-1.2,1.2-1.2,2.3v5.8c0,1.5,1.2,2.7,2.7,2.7
		c1.5,0,2.7-1.2,2.7-2.7v-5.8c0-0.8-0.4-1.5-1.2-2.3h131.8c4.6,0,8.9,2.3,11.6,5.8c2.7,3.9,6.9,8.5,10.8,13.1c2.7,3.1,5,6.2,7.3,8.9
		c8.5,10.4,21.2,9.6,21.6,9.6h42v19.3c0,15.8,12.7,28.9,28.9,28.9h121c15.8,0,28.9-12.7,28.9-28.9V130c0-15.8-12.7-28.9-28.9-28.9
		h-11.2V68c0-27-22-48.9-48.9-48.9c-27,0-49.7,22-49.7,48.9v33.1h-11.2c-15.8,0-28.9,12.7-28.9,28.9v48.6h-42.4
		c-0.4,0-10.4,0.8-17-7.3c-2.3-3.1-5-6.2-7.3-9.2c-3.9-4.6-7.7-9.2-10.4-13.1c-3.9-5-9.6-8.1-16.2-8.1H56.7c-11.2,0-20,8.9-20,20
		v255.9c0,9.2,7.7,17,17,17h373C435.9,433.3,443.2,425.6,443.2,416.3z M352.6,68c0-23.9,19.7-43.5,43.5-43.5s43.5,19.7,43.5,43.5
		v33.1h-18.1V68c0-13.9-11.6-25.4-25.4-25.4c-13.9,0-25.4,11.6-25.4,25.4v33.1h-18.1L352.6,68L352.6,68z M415.8,101.1h-39.7V68
		c0-10.8,8.9-19.7,19.7-19.7c10.8,0,19.7,8.9,19.7,19.7v33.1H415.8z M312.6,130c0-12.7,10.4-23.1,23.1-23.1h121
		c12.7,0,23.1,10.4,23.1,23.1v73.2c0,12.7-10.4,23.1-23.1,23.1h-121c-12.7,0-23.1-10.4-23.1-23.1V130z"/>
	<path class="st3" d="M405.8,279.1h-67.4c-1.5,0-2.7,1.2-2.7,2.7c0,1.5,1.2,2.7,2.7,2.7h67.4c1.5,0,2.7-1.2,2.7-2.7
		C408.5,280.7,407.4,279.1,405.8,279.1z"/>
	<path class="st3" d="M405.8,316.1h-76.3c-1.5,0-2.7,1.2-2.7,2.7s1.2,2.7,2.7,2.7h75.9c1.5,0,2.7-1.2,2.7-2.7
		S407.4,316.1,405.8,316.1z"/>
	<path class="st3" d="M405.8,352.7h-97.1c-1.5,0-2.7,1.2-2.7,2.7c0,1.5,1.2,2.7,2.7,2.7h97.1c1.5,0,2.7-1.2,2.7-2.7
		S407.4,352.7,405.8,352.7z"/>
	<path class="st3" d="M272.1,395.1h133.3c1.5,0,2.7-1.2,2.7-2.7c0-1.5-1.2-2.7-2.7-2.7H272.1c-1.5,0-2.7,1.2-2.7,2.7
		C269.4,394,270.6,395.1,272.1,395.1z"/>
	<path class="st3" d="M104.1,282.2c0,1.5,1.2,2.7,2.7,2.7h39.3c1.5,0,2.7-1.2,2.7-2.7c0-1.5-1.2-2.7-2.7-2.7h-39.3
		C105.3,279.1,104.1,280.7,104.1,282.2z"/>
	<path class="st3" d="M106.8,321.5h44.3c1.5,0,2.7-1.2,2.7-2.7s-1.2-2.7-2.7-2.7h-44.3c-1.5,0-2.7,1.2-2.7,2.7
		S105.3,321.5,106.8,321.5z"/>
	<path class="st3" d="M106.8,358.5h56.6c1.5,0,2.7-1.2,2.7-2.7c0-1.5-1.2-2.7-2.7-2.7h-56.6c-1.5,0-2.7,1.2-2.7,2.7
		C104.1,357,105.3,358.5,106.8,358.5z"/>
	<path class="st3" d="M106.8,395.1h77.8c1.5,0,2.7-1.2,2.7-2.7c0-1.5-1.2-2.7-2.7-2.7h-77.8c-1.5,0-2.7,1.2-2.7,2.7
		C104.1,394,105.3,395.1,106.8,395.1z"/>
	<path class="st3" d="M82.9,327.3c0-1.5-1.2-2.7-2.7-2.7c-1.5,0-2.7,1.2-2.7,2.7v11.6c0,1.5,1.2,2.7,2.7,2.7c1.5,0,2.7-1.2,2.7-2.7
		V327.3z"/>
	<path class="st3" d="M82.9,296.5c0-1.5-1.2-2.7-2.7-2.7c-1.5,0-2.7,1.2-2.7,2.7V308c0,1.5,1.2,2.7,2.7,2.7c1.5,0,2.7-1.2,2.7-2.7
		V296.5z"/>
	<path class="st3" d="M82.9,173.6c0-1.5-1.2-2.7-2.7-2.7c-1.5,0-2.7,1.2-2.7,2.7v11.6c0,1.5,1.2,2.7,2.7,2.7c1.5,0,2.7-1.2,2.7-2.7
		V173.6z"/>
	<path class="st3" d="M82.9,358.1c0-1.5-1.2-2.7-2.7-2.7c-1.5,0-2.7,1.2-2.7,2.7v11.6c0,1.5,1.2,2.7,2.7,2.7c1.5,0,2.7-1.2,2.7-2.7
		V358.1z"/>
	<path class="st3" d="M80.2,386.3c-1.5,0-2.7,1.2-2.7,2.7v11.6c0,1.5,1.2,2.7,2.7,2.7c1.5,0,2.7-1.2,2.7-2.7V389
		C82.9,387.4,81.7,386.3,80.2,386.3z"/>
	<path class="st3" d="M82.9,204.4c0-1.5-1.2-2.7-2.7-2.7c-1.5,0-2.7,1.2-2.7,2.7v11.6c0,1.5,1.2,2.7,2.7,2.7c1.5,0,2.7-1.2,2.7-2.7
		V204.4z"/>
	<path class="st3" d="M82.9,265.6c0-1.5-1.2-2.7-2.7-2.7c-1.5,0-2.7,1.2-2.7,2.7v11.6c0,1.5,1.2,2.7,2.7,2.7c1.5,0,2.7-1.2,2.7-2.7
		V265.6z"/>
	<path class="st3" d="M82.9,235.2c0-1.5-1.2-2.7-2.7-2.7c-1.5,0-2.7,1.2-2.7,2.7v11.6c0,1.5,1.2,2.7,2.7,2.7c1.5,0,2.7-1.2,2.7-2.7
		V235.2z"/>
	<path class="st3" d="M384.2,163.5c0.4,0.4,0.8,1.2,1.5,1.5c1.2,1.9,1.9,4.2,1.9,6.9v17.7c0,1.5,1.2,2.7,2.7,2.7h11.2
		c1.5,0,2.7-1.2,2.7-2.7V172c0-2.7,0.8-5,1.9-6.9c0.4-0.8,1.2-1.2,1.5-1.5l0.4-0.4c1.5-2.3,2.3-5,2.3-7.7c0-8.1-6.6-14.6-14.6-14.6
		c-8.1,0-14.6,6.6-14.6,14.6c0,2.7,0.8,5.4,2.3,7.7C383.9,163.1,383.9,163.1,384.2,163.5z M396.2,146.2c5,0,8.9,3.9,8.9,8.9
		c0,1.5-0.4,3.1-1.2,4.6c-0.8,0.8-1.5,1.5-1.9,2.3c-1.9,3.1-3.1,6.6-3.1,10v15h-5.4v-15c0-3.9-1.2-7.3-3.1-10
		c-0.8-0.8-1.2-1.9-1.9-2.3c-0.8-1.5-1.2-3.1-1.2-4.6C386.9,150,391.2,146.2,396.2,146.2z"/>
	<path class="st3" d="M337.2,207.5h117.1c3.5,0,6.2-2.7,6.2-6.2v-69.7c0-3.5-2.7-6.2-6.2-6.2H337.2c-3.5,0-6.2,2.7-6.2,6.2v69.7
		C331.5,204.8,334.1,207.5,337.2,207.5z M336.8,131.5c0-0.4,0-0.4,0.4-0.4h117.1c0.4,0,0.4,0,0.4,0.4v69.7c0,0.4,0,0.4-0.4,0.4
		H337.2c-0.4,0-0.4,0-0.4-0.4V131.5z"/>
	<path class="st3" d="M238.6,382c0.4,0.4,0.8,0.4,1.2,0.4s0.8,0,1.2-0.4c18.5-9.6,33.9-22.7,45.9-38.9c8.1-11.2,14.6-23.9,19.3-37.8
		c9.6-28.1,8.5-51.3,8.5-52.4c0-1.5-1.2-2.7-2.7-2.7l0,0c-28.1,0.8-47.4-7.3-59-14.3c-6.9-4.6-10.8-8.5-10.8-8.5
		c-0.4-0.4-1.2-0.8-1.9-0.8l0,0c-0.8,0-1.5,0.4-1.9,0.8c-0.4,0.4-23.1,23.9-70.1,22.7l0,0c-1.5,0-2.7,1.2-2.7,2.7
		C165,253.7,161.9,342.3,238.6,382z M170.8,256c40.1,0,62.4-17,69-22.7c1.9,1.9,5.4,4.6,10.4,7.3c11.6,6.9,30.8,15.4,59,15.4
		c0,6.9-1.2,25.8-8.5,47.4c-4.6,13.5-10.8,25.4-18.5,36.2C271,355,256.7,367,239.7,376.2C175.4,341.9,170.8,270.7,170.8,256
		L170.8,256z"/>
	<path class="st3" d="M238.2,348.1c0.4,0.4,1.2,0.4,1.5,0.4c0.8,0,1.2,0,1.5-0.4c8.5-6.2,16.2-13.5,22.4-22.4
		c6.6-8.9,11.6-18.9,15.4-30.1c1.9-5.4,3.1-10.8,4.2-16.2c0-0.8,0-1.5-0.4-2.3c-0.4-0.8-1.2-1.2-1.9-1.2
		c-14.6-2.7-28.1-7.7-40.1-14.3c-0.8-0.4-1.9-0.4-2.7,0c-11.9,6.9-25.4,11.6-40.1,14.3c-0.8,0-1.5,0.4-1.9,1.2
		c-0.4,0.8-0.8,1.5-0.4,2.3C200.4,299.9,210.8,328.5,238.2,348.1z M240.1,267.6c11.6,6.2,23.9,10.8,37.8,13.5
		c-1.2,4.2-2.3,8.5-3.5,12.7c-3.5,10.8-8.5,20-14.6,28.5c-5.4,7.3-11.9,14.3-19.3,19.7c-23.5-17.7-33.5-42.4-37.8-60.9
		C215.8,278.8,228.6,274.1,240.1,267.6z"/>
	<path class="st3" d="M109.1,184h90.2c1.5,0,2.7-1.2,2.7-2.7c0-1.5-1.2-2.7-2.7-2.7h-90.2c-1.5,0-2.7,1.2-2.7,2.7
		C106,182.8,107.6,184,109.1,184z"/>
</g>
</svg>
